<svg width="130" height="130" viewBox="0 0 130 130" fill="none" xmlns="http://www.w3.org/2000/svg">
<path d="M34.3748 84.3415L90.4404 57.0757L80.66 85.375C80.4816 85.8731 80.4039 86.4016 80.4312 86.9299C80.4585 87.4583 80.5903 87.976 80.8191 88.453C81.0478 88.9301 81.369 89.357 81.7638 89.7091C82.1587 90.0611 82.6195 90.3314 83.1196 90.5042C83.6196 90.6769 84.149 90.7488 84.677 90.7156C85.205 90.6824 85.7212 90.5447 86.1956 90.3106C86.6701 90.0766 87.0934 89.7507 87.441 89.3519C87.7887 88.9531 88.0538 88.4893 88.2209 87.9873L101.155 50.5614C101.502 49.5589 101.436 48.4599 100.972 47.506C100.508 46.5522 99.6843 45.8216 98.6819 45.475L61.256 32.5405C60.7595 32.3682 60.2339 32.2957 59.7094 32.3271C59.1848 32.3586 58.6716 32.4934 58.1993 32.7237C57.488 33.0698 56.8953 33.619 56.4962 34.3019C56.097 34.9848 55.9092 35.7707 55.9566 36.5603C56.0041 37.3499 56.2845 38.1077 56.7625 38.7379C57.2406 39.3681 57.8947 39.8424 58.6423 40.1009L86.9416 49.8813L30.876 77.1472C29.922 77.6111 29.1914 78.4351 28.8448 79.4377C28.4983 80.4404 28.5643 81.5397 29.0282 82.4937C29.4922 83.4477 30.3162 84.1784 31.3188 84.5249C32.3215 84.8714 33.4208 84.8055 34.3748 84.3415Z" fill="white"/>
</svg>
