<svg width="24" height="24" viewBox="0 0 24 24" fill="none" xmlns="http://www.w3.org/2000/svg">
<path d="M18 2.25H6C5.00544 2.25 4.05161 2.64509 3.34835 3.34835C2.64509 4.05161 2.25 5.00544 2.25 6V18C2.25 18.9946 2.64509 19.9484 3.34835 20.6517C4.05161 21.3549 5.00544 21.75 6 21.75H12C12.1989 21.75 12.3897 21.671 12.5303 21.5303C12.671 21.3897 12.75 21.1989 12.75 21V15C12.75 14.8011 12.671 14.6103 12.5303 14.4697C12.3897 14.329 12.1989 14.25 12 14.25H11.25V12.75H12C12.1989 12.75 12.3897 12.671 12.5303 12.5303C12.671 12.3897 12.75 12.1989 12.75 12V9.375C12.75 8.87772 12.9475 8.40081 13.2992 8.04917C13.6508 7.69754 14.1277 7.5 14.625 7.5H16.5V9H15.75C15.3522 9 14.9706 9.15804 14.6893 9.43934C14.408 9.72064 14.25 10.1022 14.25 10.5V12C14.25 12.1989 14.329 12.3897 14.4697 12.5303C14.6103 12.671 14.8011 12.75 15 12.75H16.29L15.915 14.25H15C14.8011 14.25 14.6103 14.329 14.4697 14.4697C14.329 14.6103 14.25 14.8011 14.25 15V18C14.25 18.1989 14.329 18.3897 14.4697 18.5303C14.6103 18.671 14.8011 18.75 15 18.75C15.1989 18.75 15.3897 18.671 15.5303 18.5303C15.671 18.3897 15.75 18.1989 15.75 18V15.75H16.5C16.6713 15.755 16.8392 15.7012 16.9757 15.5974C17.1121 15.4937 17.2089 15.3464 17.25 15.18L18 12.18C18.0281 12.0693 18.0305 11.9537 18.0071 11.8419C17.9837 11.7301 17.9351 11.6251 17.865 11.535C17.7921 11.4425 17.6984 11.3686 17.5915 11.3191C17.4847 11.2695 17.3677 11.2459 17.25 11.25H15.75V10.5H17.25C17.4489 10.5 17.6397 10.421 17.7803 10.2803C17.921 10.1397 18 9.94891 18 9.75V6.75C18 6.55109 17.921 6.36032 17.7803 6.21967C17.6397 6.07902 17.4489 6 17.25 6H14.625C13.7305 6.00198 12.8732 6.3582 12.2407 6.9907C11.6082 7.62321 11.252 8.4805 11.25 9.375V11.25H10.5C10.3011 11.25 10.1103 11.329 9.96967 11.4697C9.82902 11.6103 9.75 11.8011 9.75 12V15C9.75 15.1989 9.82902 15.3897 9.96967 15.5303C10.1103 15.671 10.3011 15.75 10.5 15.75H11.25V20.25H6C5.40326 20.25 4.83097 20.0129 4.40901 19.591C3.98705 19.169 3.75 18.5967 3.75 18V6C3.75 5.40326 3.98705 4.83097 4.40901 4.40901C4.83097 3.98705 5.40326 3.75 6 3.75H18C18.5967 3.75 19.169 3.98705 19.591 4.40901C20.0129 4.83097 20.25 5.40326 20.25 6V18C20.25 18.5967 20.0129 19.169 19.591 19.591C19.169 20.0129 18.5967 20.25 18 20.25H15C14.8011 20.25 14.6103 20.329 14.4697 20.4697C14.329 20.6103 14.25 20.8011 14.25 21C14.25 21.1989 14.329 21.3897 14.4697 21.5303C14.6103 21.671 14.8011 21.75 15 21.75H18C18.9946 21.75 19.9484 21.3549 20.6517 20.6517C21.3549 19.9484 21.75 18.9946 21.75 18V6C21.75 5.00544 21.3549 4.05161 20.6517 3.34835C19.9484 2.64509 18.9946 2.25 18 2.25Z" fill="white"/>
</svg>
